<svg width="100" height="100" viewBox="0 0 100 100" fill="none" xmlns="http://www.w3.org/2000/svg">
<g clip-path="url(#clip0_1_9)">
<path d="M85.3651 14.6289C65.8595 -4.87671 34.1322 -4.87671 14.6277 14.6289C-4.86972 34.1346 -4.86972 65.8689 14.6277 85.3699C34.1322 104.876 65.8689 104.876 85.3651 85.3699C104.872 65.8689 104.872 34.131 85.3651 14.6289ZM22.4624 22.4612C35.2818 9.63832 54.8919 7.64443 69.8262 16.4772L16.483 69.8309C7.63968 54.8955 9.63475 35.2842 22.4624 22.4612ZM77.5293 77.5352C64.798 90.2666 45.3769 92.3156 30.4826 83.7001L83.693 30.4873C92.3215 45.3828 90.2689 64.8039 77.5293 77.5352Z" fill="#860000"/>
</g>
<defs>
<clipPath id="clip0_1_9">
<rect width="100" height="100" fill="white"/>
</clipPath>
</defs>
</svg>
